# Blender v2.82 (sub 7) OBJ File: ''
# www.blender.org
mtllib tnt.mtl
o Cube
v 0.500000 0.500000 0.500000
v 0.500000 0.500000 -0.500000
v 0.500000 -0.500000 0.500000
v 0.500000 -0.500000 -0.500000
v -0.500000 0.500000 0.500000
v -0.500000 0.500000 -0.500000
v -0.500000 -0.500000 0.500000
v -0.500000 -0.500000 -0.500000
vt -0.000659 0.000000
vt 0.499671 -0.001271
vt 0.499435 0.504330
vt -0.001741 0.502730
vt 0.499925 0.500038
vt 0.500010 1.000025
vt -0.000004 1.000010
vt 0.000061 0.501930
vt 0.499852 0.500148
vt 0.499852 0.999901
vt 0.000099 0.999901
vt 0.000099 0.500148
vt 0.500047 0.000100
vt 0.999900 0.000100
vt 0.999900 0.499953
vt 0.500047 0.499953
vt 0.497780 0.498455
vt 0.501545 0.998011
vt 0.001989 1.001777
vt -0.001777 0.502220
vt 0.500038 0.499962
vt 0.500038 0.999900
vt 0.000100 0.999900
vt 0.000100 0.499962
vn 0.0000 -0.0000 1.0000
vn 0.0000 -1.0000 -0.0000
vn -1.0000 0.0000 0.0000
vn 0.0000 0.0000 -1.0000
vn 1.0000 0.0000 0.0000
vn 0.0000 1.0000 0.0000
usemtl Material
s off
f 1/1/1 5/2/1 7/3/1 3/4/1
f 4/5/2 3/6/2 7/7/2 8/8/2
f 8/9/3 7/10/3 5/11/3 6/12/3
f 6/13/4 2/14/4 4/15/4 8/16/4
f 2/17/5 1/18/5 3/19/5 4/20/5
f 6/21/6 5/22/6 1/23/6 2/24/6
