# Blender v3.2.0 OBJ File: ''
# www.blender.org
mtllib boostSpeed.mtl
o map_ob000_item_03_speedup_map_ob000_item_03_speedup.002
v 0.400000 -0.335876 -0.270190
v -0.400000 0.229810 -0.835876
v 0.400000 0.229810 -0.835876
v -0.400000 -0.335876 -0.270190
v 0.400000 0.229810 -0.835876
v -0.400000 0.335876 -0.729810
v 0.400000 0.335876 -0.729810
v -0.400000 0.229810 -0.835876
v 0.400000 0.335876 -0.729810
v -0.400000 -0.229810 -0.164124
v 0.400000 -0.229810 -0.164124
v -0.400000 0.335876 -0.729810
v 0.400000 -0.229810 -0.164124
v -0.400000 -0.335876 -0.270190
v 0.400000 -0.335876 -0.270190
v -0.400000 -0.229810 -0.164124
v -0.400000 -0.229810 -0.164124
v -0.400000 0.229810 -0.835876
v -0.400000 -0.335876 -0.270190
v -0.400000 0.335876 -0.729810
v 0.400000 0.335876 -0.729810
v 0.400000 -0.335876 -0.270190
v 0.400000 0.229810 -0.835876
v 0.400000 -0.229810 -0.164124
vt 0.001000 0.502000
vt 0.124000 0.748000
vt 0.001000 0.748000
vt 0.124000 0.502000
vt 0.648280 0.754140
vt 0.632244 0.996259
vt 0.632244 0.754140
vt 0.648280 0.996259
vt 0.124000 0.748000
vt 0.001000 0.502000
vt 0.124000 0.502000
vt 0.001000 0.748000
vt 0.632244 0.996259
vt 0.648280 0.754140
vt 0.648280 0.996259
vt 0.632244 0.754140
vt 0.632244 0.996259
vt 0.648280 0.754140
vt 0.648280 0.996259
vt 0.632244 0.754140
vt 0.632244 0.996259
vt 0.648280 0.754140
vt 0.648280 0.996259
vt 0.632244 0.754140
vn 0.0000 -0.7071 -0.7071
vn 0.0000 0.7071 -0.7071
vn 0.0000 0.7071 0.7071
vn 0.0000 -0.7071 0.7071
vn -1.0000 0.0000 0.0000
vn 1.0000 0.0000 0.0000
usemtl mat_map_ob000_item_007.001
s off
f 1/1/1 2/2/1 3/3/1
f 1/1/1 4/4/1 2/2/1
f 5/5/2 6/6/2 7/7/2
f 5/5/2 8/8/2 6/6/2
f 9/9/3 10/10/3 11/11/3
f 9/9/3 12/12/3 10/10/3
f 13/13/4 14/14/4 15/15/4
f 13/13/4 16/16/4 14/14/4
f 17/17/5 18/18/5 19/19/5
f 17/17/5 20/20/5 18/18/5
f 21/21/6 22/22/6 23/23/6
f 21/21/6 24/24/6 22/22/6
