# Blender v3.2.0 OBJ File: ''
# www.blender.org
mtllib boostBomb.mtl
o map_ob000_item_02_bombup_map_ob000_item_02_bombup.004
v 1.109184 -3.365210 1.826600
v 0.309184 -2.799524 1.260914
v 1.109184 -2.799524 1.260914
v 0.309184 -3.365210 1.826600
v 1.109184 -2.799524 1.260914
v 0.309184 -2.693458 1.366980
v 1.109184 -2.693458 1.366980
v 0.309184 -2.799524 1.260914
v 1.109184 -2.693458 1.366980
v 0.309184 -3.259144 1.932666
v 1.109184 -3.259144 1.932666
v 0.309184 -2.693458 1.366980
v 1.109184 -3.259144 1.932666
v 0.309184 -3.365210 1.826600
v 1.109184 -3.365210 1.826600
v 0.309184 -3.259144 1.932666
v 0.309184 -3.259144 1.932666
v 0.309184 -2.799524 1.260914
v 0.309184 -3.365210 1.826600
v 0.309184 -2.693458 1.366980
v 1.109184 -2.693458 1.366980
v 1.109184 -3.365210 1.826600
v 1.109184 -2.799524 1.260914
v 1.109184 -3.259144 1.932666
vt 0.001000 0.252000
vt 0.124000 0.498000
vt 0.001000 0.498000
vt 0.124000 0.252000
vt 0.648280 0.754140
vt 0.632244 0.996259
vt 0.632244 0.754140
vt 0.648280 0.996259
vt 0.124000 0.498000
vt 0.001000 0.252000
vt 0.124000 0.252000
vt 0.001000 0.498000
vt 0.632244 0.996259
vt 0.648280 0.754140
vt 0.648280 0.996259
vt 0.632244 0.754140
vt 0.632244 0.996259
vt 0.648280 0.754140
vt 0.648280 0.996259
vt 0.632244 0.754140
vt 0.632244 0.996259
vt 0.648280 0.754140
vt 0.648280 0.996259
vt 0.632244 0.754140
vn 0.0000 -0.7071 -0.7071
vn 0.0000 0.7071 -0.7071
vn 0.0000 0.7071 0.7071
vn 0.0000 -0.7071 0.7071
vn -1.0000 0.0000 0.0000
vn 1.0000 -0.0000 0.0000
usemtl mat_map_ob000_item_007
s off
f 1/1/1 2/2/1 3/3/1
f 1/1/1 4/4/1 2/2/1
f 5/5/2 6/6/2 7/7/2
f 5/5/2 8/8/2 6/6/2
f 9/9/3 10/10/3 11/11/3
f 9/9/3 12/12/3 10/10/3
f 13/13/4 14/14/4 15/15/4
f 13/13/4 16/16/4 14/14/4
f 17/17/5 18/18/5 19/19/5
f 17/17/5 20/20/5 18/18/5
f 21/21/6 22/22/6 23/23/6
f 21/21/6 24/24/6 22/22/6
